# xmcd CD database file
#
# Track frame offsets:
#	150
#	15012
#	32840
#	48535
#	67250
#	85512
#	104337
#	123155
#	138755
#	161412
#
# Disc length: 2354 seconds
#
# Revision: 0
# Processed by: cddbd v1.5.1PL0 Copyright (c) Steve Scherf et al.
# Submitted via: CDex 1.50
#
DISCID=7309300a
DTITLE=宗次郎 - こころのうた・十 奏
DYEAR=1991
DGENRE=New Age
TTITLE0=序章
TTITLE1=木漏れ日
TTITLE2=望郷
TTITLE3=春の想い
TTITLE4=陽春
TTITLE5=夏草
TTITLE6=入江のほとり
TTITLE7=浮雲
TTITLE8=晩秋
TTITLE9=終章
EXTD=YEAR: 1991
EXTT0=
EXTT1=
EXTT2=
EXTT3=
EXTT4=
EXTT5=
EXTT6=
EXTT7=
EXTT8=
EXTT9=
PLAYORDER=
